<svg xmlns="http://www.w3.org/2000/svg" xmlns:xlink="http://www.w3.org/1999/xlink" width="500" zoomAndPan="magnify" viewBox="0 0 375 374.999991" height="500" preserveAspectRatio="none" version="1.0"><defs><clipPath id="d1f823ede8"><path d="M 224 181 L 263.898438 181 L 263.898438 236 L 224 236 Z M 224 181 " clip-rule="nonzero"/></clipPath><clipPath id="c74755d04d"><path d="M 150 138.378906 L 225 138.378906 L 225 197 L 150 197 Z M 150 138.378906 " clip-rule="nonzero"/></clipPath></defs><g clip-path="url(#d1f823ede8)"><path fill="#545454" d="M 261.023438 202.40625 L 257.765625 201.339844 L 252.742188 211.5625 L 256.238281 200.839844 L 257.703125 196.347656 C 258.269531 194.621094 257.328125 192.765625 255.605469 192.203125 L 252.722656 191.257812 L 246.089844 204.75 L 250.707031 190.601562 L 250.800781 190.308594 C 251.945312 186.804688 250.035156 183.039062 246.535156 181.894531 C 243.039062 180.75 239.277344 182.664062 238.132812 186.164062 L 224.734375 227.246094 C 223.59375 230.746094 225.5 234.511719 229 235.660156 C 232.046875 236.65625 235.296875 235.332031 236.835938 232.652344 L 239.394531 224.820312 L 238.246094 231.34375 L 242.394531 232.699219 C 244.117188 233.261719 245.972656 232.320312 246.535156 230.59375 L 248 226.101562 L 252.78125 227.664062 C 254.503906 228.226562 256.359375 227.285156 256.921875 225.5625 L 263.121094 206.550781 C 263.683594 204.824219 262.746094 202.96875 261.023438 202.40625 " fill-opacity="1" fill-rule="nonzero"/></g><path fill="#545454" d="M 113.742188 202.40625 L 117 201.339844 L 122.023438 211.5625 L 118.527344 200.839844 L 117.058594 196.347656 C 116.496094 194.621094 117.4375 192.765625 119.160156 192.203125 L 122.042969 191.257812 L 128.675781 204.75 L 124.058594 190.601562 L 123.964844 190.308594 C 122.820312 186.804688 124.730469 183.039062 128.230469 181.894531 C 131.726562 180.75 135.488281 182.664062 136.632812 186.164062 L 150.03125 227.246094 C 151.171875 230.746094 149.265625 234.511719 145.765625 235.660156 C 142.71875 236.65625 139.46875 235.332031 137.925781 232.652344 L 135.371094 224.820312 L 136.515625 231.34375 L 132.371094 232.699219 C 130.648438 233.261719 128.792969 232.320312 128.230469 230.59375 L 126.765625 226.101562 L 121.984375 227.664062 C 120.261719 228.226562 118.40625 227.285156 117.84375 225.5625 L 111.644531 206.550781 C 111.082031 204.824219 112.019531 202.96875 113.742188 202.40625 " fill-opacity="1" fill-rule="nonzero"/><path fill="#545454" d="M 151.453125 208.785156 C 155.878906 224.484375 170.289062 235.988281 187.382812 235.988281 C 203.777344 235.988281 217.707031 225.402344 222.722656 210.683594 C 211.40625 206.367188 198.140625 204.042969 184.335938 204.042969 C 172.679688 204.042969 161.5 205.667969 151.453125 208.785156 " fill-opacity="1" fill-rule="nonzero"/><g clip-path="url(#c74755d04d)"><path fill="#7ed957" d="M 208.789062 149.957031 L 205.902344 166.136719 C 200.445312 163.007812 194.121094 161.21875 187.382812 161.21875 C 180.644531 161.21875 174.320312 163.007812 168.863281 166.136719 L 165.976562 149.957031 C 165.78125 148.859375 166.269531 148.078125 166.574219 147.710938 C 166.882812 147.34375 167.5625 146.726562 168.679688 146.726562 L 206.085938 146.726562 C 207.203125 146.726562 207.882812 147.34375 208.191406 147.710938 C 208.496094 148.078125 208.984375 148.859375 208.789062 149.957031 Z M 213.351562 171.746094 L 216.976562 151.421875 C 217.550781 148.183594 216.675781 144.882812 214.566406 142.363281 C 212.460938 139.839844 209.371094 138.398438 206.085938 138.398438 L 168.679688 138.398438 C 165.394531 138.398438 162.304688 139.839844 160.199219 142.363281 C 158.089844 144.882812 157.214844 148.183594 157.789062 151.421875 L 161.414062 171.746094 C 155.257812 177.722656 151.144531 185.796875 150.238281 194.824219 C 160.84375 191.847656 172.394531 190.300781 184.335938 190.300781 C 198.613281 190.300781 212.472656 192.5625 224.671875 196.78125 C 224.199219 186.972656 219.953125 178.148438 213.351562 171.746094 " fill-opacity="1" fill-rule="nonzero"/></g><path fill="#545454" d="M 234.390625 211.875 C 220.785156 204.367188 203.011719 200.234375 184.335938 200.234375 C 168.128906 200.234375 152.769531 203.285156 139.929688 209.058594 L 137.425781 203.472656 C 151.046875 197.347656 167.269531 194.109375 184.335938 194.109375 C 204.023438 194.109375 222.847656 198.515625 237.339844 206.511719 L 234.390625 211.875 " fill-opacity="1" fill-rule="nonzero"/></svg>